<svg id="Layer_1" data-name="Layer 1" xmlns="http://www.w3.org/2000/svg" viewBox="0 0 512 512"><defs><style>.cls-1{fill:#e4e6ea;}.cls-2{fill:#f2496d;}.cls-3{opacity:0.2;}.cls-4{fill:#2b374f;}</style></defs><title>lollipop-filled</title><path class="cls-1" d="M87.72,488h0a38.3,38.3,0,0,0,54.17,0L397,232.91C445.85,184,449.6,104.39,402.6,53.69c-49.42-53.3-133-54.49-184-3.55L187,81.73a38.3,38.3,0,0,0,0,54.17h0a38.3,38.3,0,0,0,54.17,0l30.32-30.32C290.73,86.36,322,84,342.46,101.91A51.12,51.12,0,0,1,345,176.52L87.72,433.82A38.3,38.3,0,0,0,87.72,488Z"/><rect class="cls-2" x="125.31" y="386.49" width="51.2" height="76.6" transform="translate(-256.16 231.12) rotate(-45)"/><rect class="cls-2" x="197.53" y="314.26" width="51.2" height="76.6" transform="translate(-183.95 261.04) rotate(-45)"/><rect class="cls-2" x="269.76" y="242.04" width="51.2" height="76.6" transform="translate(-111.72 290.96) rotate(-45)"/><rect class="cls-2" x="341.98" y="169.82" width="51.2" height="76.6" transform="translate(-39.5 320.87) rotate(-45)"/><rect class="cls-2" x="357.44" y="92.24" width="74.44" height="51.2" transform="translate(-16.8 99.25) rotate(-14.04)"/><rect class="cls-2" x="294.25" y="29.05" width="74.44" height="51.2" transform="translate(198.05 362.96) rotate(-75.96)"/><rect class="cls-2" x="215.59" y="43.43" width="51.2" height="76.6" transform="translate(12.85 194.49) rotate(-45)"/><g class="cls-3"><path d="M293.63,92.24a54.08,54.08,0,0,0-22.12,13.34L241.19,135.9a38.23,38.23,0,0,1-53,.92l38.1-38.1C244.38,80.58,273.25,77.5,293.63,92.24Zm109-38.55A127.18,127.18,0,0,0,305.35,13a126.91,126.91,0,0,1,52,33.82c47,50.7,43.25,130.33-5.64,179.22L88.84,488.9a38.23,38.23,0,0,0,53-.92L397,232.91C445.85,184,449.6,104.39,402.6,53.68Z"/></g><path class="cls-4" d="M114.8,512a50.77,50.77,0,0,1-36.13-15h0a51.1,51.1,0,0,1,0-72.27L336,167.47A38.33,38.33,0,0,0,334,111.54c-15.07-13.18-38.55-11.83-53.47,3.08l-30.32,30.32A51.1,51.1,0,1,1,178,72.68l31.6-31.6A140.62,140.62,0,0,1,412,45c50.66,54.65,48,143-6,197L150.93,497A50.75,50.75,0,0,1,114.8,512ZM309.53,76.92a62.52,62.52,0,0,1,41.36,15.36,63.31,63.31,0,0,1,21.83,46,64.1,64.1,0,0,1-18.65,47.31L96.77,442.87a25.5,25.5,0,0,0,0,36.06h0c9.63,9.63,26.43,9.63,36.06,0L387.91,223.86c44.34-44.35,46.73-116.78,5.3-161.47a115,115,0,0,0-165.54-3.21l-31.6,31.6a25.53,25.53,0,0,0,0,36.07c9.63,9.63,26.43,9.63,36.07,0l30.32-30.33A66.59,66.59,0,0,1,309.53,76.92Z"/></svg>